/* XPM */
static char *ksudoku[] = {
/* columns rows colors chars-per-pixel */
"32 32 166 2 ",
"   c black",
".  c #010101",
"X  c gray2",
"o  c #060606",
"O  c gray3",
"+  c #0C0C0C",
"@  c #0E0E0E",
"#  c gray6",
"$  c #101010",
"%  c #101212",
"&  c #111313",
"*  c gray7",
"=  c #131313",
"-  c gray8",
";  c #151515",
":  c #161616",
">  c #161816",
",  c #181818",
"<  c #191919",
"1  c #1B1B1B",
"2  c #1E1E1E",
"3  c gray12",
"4  c #202020",
"5  c gray13",
"6  c #222222",
"7  c #232323",
"8  c gray15",
"9  c #272727",
"0  c gray17",
"q  c #2D2D2D",
"w  c gray18",
"e  c #2F2F2F",
"r  c #2E3231",
"t  c #2F3333",
"y  c gray19",
"u  c #323232",
"i  c #343434",
"p  c #353535",
"a  c #363938",
"s  c #393939",
"d  c #3C3C3C",
"f  c #39433F",
"g  c gray25",
"h  c #414141",
"j  c gray26",
"k  c #434343",
"l  c #444444",
"z  c gray27",
"x  c #464646",
"c  c gray29",
"v  c #4C4C4C",
"b  c gray30",
"n  c #4E4E4E",
"m  c gray31",
"M  c #505050",
"N  c gray32",
"B  c #535353",
"V  c #545555",
"C  c #565656",
"Z  c gray34",
"A  c #585858",
"S  c gray35",
"D  c #5A5A5A",
"F  c #585F5D",
"G  c gray36",
"H  c #5C5F5D",
"J  c #5E6261",
"K  c gray38",
"L  c #626262",
"P  c #656565",
"I  c #676767",
"U  c DimGray",
"Y  c #6D6D6D",
"T  c gray46",
"R  c #777777",
"E  c gray47",
"W  c #797979",
"Q  c gray48",
"!  c #7C7C7C",
"~  c gray49",
"^  c #808080",
"/  c gray51",
"(  c #838383",
")  c gray52",
"_  c #868686",
"`  c gray53",
"'  c #898989",
"]  c gray54",
"[  c #8B8B8B",
"{  c gray55",
"}  c #8D8D8D",
"|  c #8E8E8E",
" . c gray56",
".. c #909090",
"X. c gray57",
"o. c #929292",
"O. c #939393",
"+. c gray58",
"@. c #959595",
"#. c gray59",
"$. c #979797",
"%. c #9A9A9A",
"&. c gray61",
"*. c gray63",
"=. c #A5A5A5",
"-. c gray65",
";. c gray66",
":. c #A9A9A9",
">. c #AAAAAA",
",. c gray67",
"<. c #AEAEAE",
"1. c #AFAFAF",
"2. c gray69",
"3. c #B0B2B2",
"4. c gray70",
"5. c #B4B4B4",
"6. c gray71",
"7. c gray72",
"8. c #B9B9B9",
"9. c #B8BCBA",
"0. c #BABCBC",
"q. c #BCBCBC",
"w. c gray74",
"e. c gray",
"r. c #C0C0C0",
"t. c #C1C1C1",
"y. c gray76",
"u. c gray77",
"i. c gray78",
"p. c #C4C8C6",
"a. c #C8C8C8",
"s. c #CACACA",
"d. c #CECECE",
"f. c gray81",
"g. c #D2D2D2",
"h. c LightGray",
"j. c gray83",
"k. c gray84",
"l. c #DADADA",
"z. c #D8DCDA",
"x. c gray87",
"c. c #DFDFDF",
"v. c #E2E2E2",
"b. c #E4E4E4",
"n. c gray90",
"m. c #E6E6E6",
"M. c #E7E7E7",
"N. c gray91",
"B. c #EAEAEA",
"V. c gray92",
"C. c #ECECEC",
"Z. c gray93",
"A. c #EEEEEE",
"S. c gray94",
"D. c #F1F1F1",
"F. c gray95",
"G. c gray96",
"H. c #F6F6F6",
"J. c gray97",
"K. c #F9F9F9",
"L. c gray98",
"P. c #FBFBFB",
"I. c gray99",
"U. c #FDFDFD",
"Y. c gray100",
"T. c None",
/* pixels */
"T.T.T.T.T.T.T.T.T.T.T.T.T.T.T.T.T.T.T.T.T.T.T.T.T.T.T.T.T.T.T.T.",
"T.T.T.T.            T.T.T.T.T.T.T.T.T.T.T.T.T.T.T.T.T.T.T.T.T.T.",
"T.T.T.    T.T.Y.]   i Y.Q Q Y.Y.T.T.T.T.T.5 3 T.T.T.T.T.T.T.T.T.",
"T.T.    D Y.Y.Y.Y.C   s.o.o.Y.Y.y. .T.T.T.3 3 T.T.T.T.T.T.T.T.T.",
"T.T.    q.Y.Y.Y.Y.R   /  .o.Y.N.D P < T.T.3 5 T.T.T.T.T.T.T.T.T.",
"T.T.:   ) Y.Y.Y.Y.l   K o.#.Y.Y.Y.Y.] 3 T.3 5 T.T.T.T.T.T.T.T.T.",
"T.T.T.$ + =.D.m.R     C  .#.Y.Y.x.M 5 T.T.$ $ T.T.T.T.T.T.T.T.T.",
"T.T.Y.f.s       0 ~   U ] o.Y.Y.G.y.x i T.o o T.T.T.T.T.T.T.T.T.",
"T.T.Y.Y.Y.Z.g.x.Y./   *.)  .Y.Y.Y.Y.m.$ T.    T.T.T.T.T.T.T.T.T.",
"T.T.Y.Y.Y.Y.Y.Y.Z.: : G./ ] Y.y.Q ) i h T.  T.T.T.T.T.T.T.T.T.T.",
"T.T.Y.#.q.v.l.:.5 O q.Y.)  .Y.G.7.#.6.T.T.  T.T.T.T.T.T.T.T.T.T.",
"T.T.Y.M         h s.Y.Y.) #.Y.Y.Y.Y.Y.T.T.  T.T.T.T.T.T.T.T.T.T.",
"T.T.Y.Y.D.g.f.Z.Y.Y.Y.Y. .%.Y.Y.Y.Y.Y.T.T.  T.T.T.T.T.T.T.T.T.T.",
"T.3 h M M C D M n n D P d n /  .#.o.) T.T.  T.T.T.T.T.T.T.T.T.T.",
"T.3 w i i w w 5 $ + < 5 < 7 h n D D M d T.  + T.T.T.T.T.T.T.T.T.",
"T.T.Y.Y.Y.Y.Y.Y.Y.Y.Y.Y.&.:.Y.L.g.1.k.T.T.T.T.T.T.T.T.T.T.T.T.T.",
"T.T.Y.Y.Y.Y.Y.Y.Y.Y.Y.Y.*.1.Y.#.D K : T.T.T.T.T.T.T.T.T.T.T.T.T.",
"T.T.Y.Y.Y.Y.Y.Y.Y.Y.Y.Y.=.3.Y.Y.Y.Y.K 7 T.T.T.T.T.T.T.T.T.T.T.T.",
"T.T.T.Y.Y.Y.Y.Y.Y.Y.Y.Y.,.7.Y.Y.Y.D.5 T.T.T.T.T.T.T.T.T.T.T.T.T.",
"T.T.T.Y.Y.Y.Y.Y.Y.Y.Y.Y.3.q.Y.Y.N.0 Y T.T.T.T.T.T.T.T.T.T.T.T.T.",
"T.T.T.Y.Y.Y.Y.Y.Y.Y.Y.Y.6.y.Y.x.w o.T.T.T.T.T.T.T.T.T.T.T.T.T.T.",
"T.T.T.Y.Y.Y.Y.Y.Y.Y.Y.Y.7.i.Y.~ i a r f T.T.T.T.T.T.T.T.T.T.T.T.",
"T.T.T.N.Z.D.G.L.J.Y.Y.Y.q.s.Y.Y.T.T.T.T.T.T.T.T.T.T.T.T.T.T.T.T.",
"T.T.T.5 3 3 3 +   + 3 w w d B H J F T.T.T.T.T.T.T.T.T.T.T.T.T.T.",
"T.T.T.T.T.Z.Z.N.m.m.m.v.:.3.z.T.T.T.T.T.T.T.T.T.T.T.T.T.T.T.T.T.",
"T.T.T.T.T.Q 7 < x Y.Y.Y.0.p.T.T.T.T.T.T.T.T.T.T.T.T.T.T.T.T.T.T.",
"T.T.T.T.T.T.T.D i Y.Y.T.9.T.T.T.T.T.T.T.T.T.T.T.T.T.T.T.T.T.T.T.",
"T.T.T.T.T.T.T.l 0 T.T.T.T.T.T.T.T.T.T.T.T.T.T.T.T.T.T.T.T.T.T.T.",
"T.T.T.T.T.T.T.T.$ T.T.T.T.T.T.T.T.T.T.T.T.T.T.T.T.T.T.T.T.T.T.T.",
"T.T.T.T.T.T.T.T.& T.T.T.T.T.T.T.T.T.T.T.T.T.T.T.T.T.T.T.T.T.T.T.",
"T.T.T.T.T.T.T.$ > r T.T.T.T.T.T.T.T.T.T.T.T.T.T.T.T.T.T.T.T.T.T.",
"T.T.T.T.T.T.T.T.T.T.T.T.T.T.T.T.T.T.T.T.T.T.T.T.T.T.T.T.T.T.T.T."
};
